<svg width="95" height="122" viewBox="0 0 95 122" fill="none" xmlns="http://www.w3.org/2000/svg">
<path d="M9.16079 38.0509C9.10408 37.7545 9.59424 37.5423 9.76033 37.7986C27.1836 64.951 62.4353 74.134 67.8636 87.8585C71.0031 95.7839 67.9608 105.644 68.0337 106.044C68.7629 105.147 79.016 92.8124 68.212 79.0239C58.9271 66.2326 40.3169 62.1116 26.9 47.4821C19.0816 38.9599 19.0249 25.4598 25.304 14.8551C37.8499 -7.41954 79.5831 -5.13681 90.4803 25.0433C73.7983 11.8395 67.3775 7.60644 53.5393 9.56478C38.6925 11.6633 30.2056 24.1502 34.6415 34.7389C42.6341 53.8217 78.4529 55.1994 84.4605 83.5373C87.6162 98.4231 76.9418 108.868 73.1947 112.272C69.2936 115.812 63.3954 118.623 59.7252 119.857C55.8808 121.15 20.4347 128.711 10.6232 87.518C33.7178 124.791 59.0892 109.701 58.838 103.341C58.8907 89.5645 48.5485 88.5473 31.984 75.6759C11.8385 60.6459 11.4658 49.9571 9.16079 38.0509Z" fill="#5ABC8B"/>
<path d="M6.66386 66.2478C6.90692 66.2478 7.41329 66.428 7.41329 66.9607C7.41329 67.4252 7.04466 67.6455 6.68007 67.6415C5.00296 67.6255 2.58452 67.6815 0.903361 67.6415C0.145827 67.6495 0 67.3692 0 66.9246C0 66.5121 0.40915 66.2438 0.899319 66.2478C1.86345 66.2558 5.34729 66.2318 6.66386 66.2478Z" fill="#5ABC8B" fill-opacity="0.62"/>
<path d="M94.2459 66.1524C94.493 66.1564 94.9994 66.3326 94.9994 66.8692C94.9994 67.3298 94.6267 67.5541 94.2662 67.5501C92.585 67.53 90.1666 67.5861 88.4854 67.5501C87.7279 67.5541 87.582 67.2737 87.582 66.8292C87.582 66.4207 87.9912 66.1484 88.4854 66.1524C89.4495 66.1604 92.9293 66.1404 94.2459 66.1524Z" fill="#5ABC8B" fill-opacity="0.62"/>
</svg>
